<?xml version="1.0" encoding="utf-8"?>
<!-- Generator: Adobe Illustrator 25.0.0, SVG Export Plug-In . SVG Version: 6.00 Build 0)  -->
<svg version="1.1" id="Layer_1" xmlns="http://www.w3.org/2000/svg" xmlns:xlink="http://www.w3.org/1999/xlink" x="0px" y="0px"
	 viewBox="0 0 491.9 493.3" style="enable-background:new 0 0 491.9 493.3;" xml:space="preserve">
<style type="text/css">
	.st0{fill:#C5C5C5;}
</style>
<g>
	<path class="st0" d="M480.3,429.7c-43.9-44-87.9-88-131.9-131.8c-2.1-2.1-2.9-3.7-2.2-5.8c19.1-29.1,30.4-63.7,30.9-101
		c0-0.8,0.1-1.6,0.1-2.5c0-0.2,0-0.4-0.1-0.6C376.9,86.5,296.3,3.8,195.6,0.1c-0.3,0-0.5,0-0.8,0c-1,0-2-0.1-3.1-0.1
		c-0.7,0-1.4,0-2.1,0c-0.3,0-0.6,0-1,0c-0.5,0-0.9,0-1.4,0c-0.8,0-1.6,0-2.4,0c-0.9,0-1.8,0-2.7,0.1c-0.5,0-1.1,0-1.6,0.1
		C80.1,4.4,0,87.1,0,188.6c0,104.1,84.4,188.6,188.6,188.6c38.7,0,74.7-11.7,104.6-31.7c1.2,0.1,2.4,0.8,3.9,2.2
		c25.4,25.8,50.9,51.4,76.4,77.1c19,19.2,37.9,38.4,57.1,57.5c14.3,14.2,35.6,14.7,50.1,1.6C495.7,470,495.7,445.1,480.3,429.7z
		 M186.5,323.8C113,323.1,53.3,262,53.9,188.4c0.6-75.2,60.7-135.5,134.6-135c74.2,0.5,135.4,62.5,134.7,136.5
		C322.6,263.6,260.4,324.6,186.5,323.8z"/>
	<path class="st0" d="M261.4,168c-11.2-0.2-22.3,0-33.5,0c-5.6,0-11.2,0-17.4,0c0-16.9,0-32.8,0-48.8c0-2.6-0.1-5.4-0.7-7.9
		c-2.6-10.5-12.1-16.9-22.9-15.8c-11.3,1.2-19.2,9.5-19.3,21.1c-0.2,15.3-0.1,30.7-0.1,46c0,1.7,0,3.5,0,5.5c-17.1,0-33.4,0-49.7,0
		c-13.5,0-22.7,8.6-22.9,21.2c-0.2,12.8,9,21.8,22.6,21.9c14.8,0.1,29.7,0,44.5,0c1.8,0,3.5,0,5.6,0c0,17.2-0.1,33.7,0,50.2
		c0.1,13.3,8.9,22.6,21.5,22.6c12.6,0.1,21.5-9.1,21.5-22.5c0.1-13.8,0-27.7,0-41.5c0-2.8,0-5.6,0-8.9c2.4,0,4.2,0,5.9,0
		c15,0,30,0.1,45,0c12.7-0.1,21.7-8.9,21.9-21.1C283.5,177.9,273.9,168.2,261.4,168z"/>
</g>
</svg>
