<?xml version="1.0" encoding="utf-8"?>
<!-- Generator: Adobe Illustrator 25.0.0, SVG Export Plug-In . SVG Version: 6.00 Build 0)  -->
<svg version="1.1" id="Layer_1" xmlns="http://www.w3.org/2000/svg" xmlns:xlink="http://www.w3.org/1999/xlink" x="0px" y="0px"
	 viewBox="0 0 456.8 293.1" style="enable-background:new 0 0 456.8 293.1;" xml:space="preserve">
<path d="M110.5,293.1c-20.9,0-39.4-13.3-46.2-33c-1.2-3.5-1.7-7.2-2.3-11.1c-0.2-1.1-0.3-2.1-0.5-3.2c-0.2-1.1-0.7-4.1-4.3-4.1
	c-0.1,0-0.3,0-0.4,0c-1.3,0-2.6,0.1-4,0.1c-1.4,0-2.7,0-4-0.1c-9.9-0.2-18.1-8.2-18.2-17.9c-0.1-15.7,0-31.6,0-47
	c0-7.8,0-15.7,0-23.5c0-0.3,0-0.6,0-0.7c0.5-2.5,4.3-5.1,8.6-5.1c0.3,0,0.6,0,0.9,0c3.9,0.3,7.1,3.2,7.1,6.4v65.8
	c0,4.8,0.9,5.7,5.7,5.7c0.9,0,1.8,0,2.7,0c0.9,0,1.7,0,2.6,0c0.9,0,1.7,0,2.6,0c0.1,0,0.3,0,0.4,0c3,0,4.4-1.9,5.1-3.3
	c7.1-13.9,18.2-22.8,33.1-26.3c3.6-0.9,7.3-1.3,11.1-1.3c18.5,0,35.7,10.7,43.9,27.2c1.2,2.6,3.1,3.8,6,3.8
	c21.8,0,43.9-0.1,65.7-0.1s43.8,0,65.6,0.1c3.6,0,5.2-1.6,5.2-5.1V21.7c0-4.4-2.8-5-5.2-5c-43.3-0.1-87.4-0.1-130-0.1H32.2
	c-0.3,0-1,0-1.5,0c0.1-0.5,0.2-1.1,0.3-1.5C33.3,5.5,40.2,0,49.9,0h244.5c11,0,19,8.1,19,19.3c0,1.9,0,3.7,0,5.6c0,3.7,0,7.4,0,11.2
	c0,1,0,2.6,1.1,3.7c1,1.1,2.5,1.2,3.5,1.2c0.2,0,0.3,0,0.5,0c11,0,22.3,0,33.2,0c10.9,0,22.2,0,33.3,0c2.1,0,3.4,0.5,4.8,1.9
	c21.6,21.1,43.5,42.4,65,63.2c1.5,1.5,2,2.7,2,4.7c-0.1,36.6-0.2,74.4,0,111.8c0.1,9-5.6,16.8-13.9,18.7c-1.6,0.4-3.3,0.5-4.9,0.5
	c-4.6,0-9.2,0.1-13.8,0.1s-9.2,0-13.7-0.1c-3.3,0-4.9,1.6-4.9,4.8c-0.8,20.3-15.1,38.6-35,44.4c-4.7,1.4-9.4,2-14.2,2
	c-21.2,0-39.9-13.5-46.5-33.6c-1.3-3.9-1.8-8.3-2.3-12.5l0-0.3c-0.3-2.5-1.2-4.8-5.1-4.8c-22.8,0-46,0.1-68.9,0.1
	c-22.9,0-46,0-68.9-0.1c-3.3,0-4.9,1.6-4.9,4.9c-0.8,21.2-15.9,39.6-36.7,44.9C118.9,292.6,114.7,293.1,110.5,293.1z M356.3,211.1
	c-18,0-32.7,14.6-32.7,32.6c0,18.1,14.7,32.9,32.8,32.9c18,0,32.7-14.8,32.7-32.9C389.1,225.8,374.4,211.2,356.3,211.1L356.3,211.1z
	 M110.6,211.1c-18.1,0-32.8,14.7-32.8,32.8c0.1,18,14.8,32.7,32.7,32.7c17.8,0,32.8-14.9,32.8-32.6c0.1-8.7-3.3-17-9.5-23.2
	C127.6,214.5,119.4,211.1,110.6,211.1z M415.7,225.5c3.2,0,6.4,0,9.6,0c3.2,0,6.4,0,9.5,0c4.7,0,5.4-1.2,5.4-5.6v-75
	c0-4.5-0.8-5.4-5.3-5.4c-38.2,0-77.7,0-116.5-0.1c-3.6,0-5.2,1.6-5.2,5.2c0.1,21.5,0.1,43.4,0.1,64.5v0.1l0.5,4.6h1.6
	c0.2,0,0.4,0.1,0.7,0.1h0.9l0.6-0.7c0.2-0.3,0.5-0.6,0.7-0.8c0.3-0.3,0.6-0.6,0.8-0.9c10.4-11.2,22.6-16.8,36.1-16.8
	c3.8,0,7.9,0.5,11.9,1.3c14.7,3.2,25.7,11.9,33,26c1.2,2.5,3,3.6,5.8,3.6C409.4,225.5,412.6,225.5,415.7,225.5z M318.3,57.6
	c-4.4,0-5,2.7-5,5.1c0.1,18.1,0.1,36.5,0.1,54.2c0,5.1,0.9,6,5.9,6H435c0.8,0,4.9-0.1,5-2.7c0.1-2-0.3-4-0.7-5.3
	c-0.3-1.1-1.1-1.8-1.7-2.2l-0.1-0.1l-0.4-0.4C419.5,95,401.3,77.3,383.3,60c-1.3-1.3-3.6-2.3-5.5-2.3c-9.9,0-20,0-29.7,0
	C338.4,57.7,328.3,57.7,318.3,57.6L318.3,57.6z"/>
<path d="M97.1,57.6c-4.3,0-8.7,0-13,0c-4.3,0-8.7,0-13,0H8.7c-3,0-5.5-1.1-7-3.1c-1.6-2-2.1-4.7-1.4-7.5c0.9-3.7,4.3-6,8.9-6h100.2
	c4,0,6.7,1.4,8.2,4.3c1.4,2.6,1.4,5.7-0.1,8.2c-1.5,2.6-4.3,4.1-7.4,4.1C105.8,57.6,101.5,57.6,97.1,57.6z"/>
<path d="M98.2,98.5c-4,0-7.9,0-11.9,0c-3.9,0-7.9,0-11.8,0h-35c-4.1,0-7.2-2.1-8.3-5.5c-0.9-2.7-0.6-5.4,0.9-7.5
	c1.6-2.2,4.3-3.6,7.4-3.6c3.7,0,7.4,0,11.1,0c3.7,0,7.4,0,11.1,0c3.7,0,7.5,0,11.2,0h36.5c3.9,0,6.6,1.4,8.3,4.4
	c1.4,2.6,1.4,5.5,0,8c-1.5,2.6-4.4,4.2-7.6,4.2C106.1,98.5,102.2,98.5,98.2,98.5z"/>
<path d="M80.7,139.5c-2,0-3.9,0-5.9,0c-4-0.1-7.3-2.7-8.3-6.6c-0.8-3.4,1-7.3,4.2-8.9c1.5-0.7,3.1-1.1,4.6-1.1
	c5.7,0,11.5-0.1,17.2-0.1s11.5,0,17.2,0.1c5.1,0,8.8,3.5,8.8,8.3c0,4.8-3.6,8.2-8.8,8.3l-17.3,0c-2,0-3.9,0-5.9,0
	C84.7,139.5,82.7,139.5,80.7,139.5z"/>
</svg>
